<svg version="1" xmlns="http://www.w3.org/2000/svg" width="1840" height="1840" viewBox="0 0 1380.000000 1380.000000"><path d="M245 .7c-10.3.7-34.3 4.6-45.1 7.3-50 12.4-97.4 41.1-131.8 79.8-18.3 20.7-27.8 34.5-39.5 57.8C12.6 177.6 4.1 207 1 241c-1.4 16.1-1.4 881.1.1 897 6.3 70.1 40.3 134.6 94.7 179.9 41.7 34.6 92.5 55.5 146.7 60.1 16.6 1.4 877.4 1.4 894 0 37-3.2 70.9-13.4 104.8-31.7 14.7-7.9 23.4-13.7 37-24.6 42.3-33.8 74.9-81.6 89.1-130.5 4.5-15.5 8.1-32.9 9.8-47.2 1.9-17 1.9-892 0-909-2.6-21.9-9.7-50.5-16.8-67.8-29.3-70.7-84.9-125.1-154.4-150.7-16.6-6.1-31.1-9.9-50.5-13.2l-16-2.8-445-.1C449.8.4 247.5.5 245 .7z"/></svg>